<svg width="32" height="32" viewBox="0 0 32 32" fill="none" xmlns="http://www.w3.org/2000/svg">
<path d="M25.8266 6.51991L18.0133 3.03991C16.8666 2.53325 15.1333 2.53325 13.9866 3.03991L6.17328 6.51991C4.19995 7.39991 3.90662 8.59991 3.90662 9.23991C3.90662 9.87991 4.19995 11.0799 6.17328 11.9599L13.9866 15.4399C14.5599 15.6932 15.2799 15.8266 15.9999 15.8266C16.7199 15.8266 17.4399 15.6932 18.0133 15.4399L25.8266 11.9599C27.8 11.0799 28.0933 9.87991 28.0933 9.23991C28.0933 8.59991 27.8133 7.39991 25.8266 6.51991Z" fill="white"/>
<path d="M16.0001 22.7201C15.4934 22.7201 14.9867 22.6134 14.5201 22.4134L5.53338 18.4134C4.16005 17.8001 3.09338 16.1601 3.09338 14.6534C3.09338 14.1067 3.53338 13.6667 4.08005 13.6667C4.62672 13.6667 5.06672 14.1067 5.06672 14.6534C5.06672 15.3734 5.66672 16.3067 6.33338 16.6001L15.3201 20.6001C15.7467 20.7867 16.2401 20.7867 16.6667 20.6001L25.6534 16.6001C26.3201 16.3067 26.9201 15.3867 26.9201 14.6534C26.9201 14.1067 27.3601 13.6667 27.9067 13.6667C28.4534 13.6667 28.8934 14.1067 28.8934 14.6534C28.8934 16.1467 27.8267 17.8001 26.4534 18.4134L17.4667 22.4134C17.0134 22.6134 16.5067 22.7201 16.0001 22.7201Z" fill="white"/>
<path d="M16.0001 29.3334C15.4934 29.3334 14.9867 29.2267 14.5201 29.0267L5.53338 25.0267C4.05338 24.3734 3.09338 22.8934 3.09338 21.2667C3.09338 20.72 3.53338 20.28 4.08005 20.28C4.62672 20.28 5.06672 20.72 5.06672 21.2667C5.06672 22.1067 5.56005 22.8667 6.33338 23.2134L15.3201 27.2134C15.7467 27.4 16.2401 27.4 16.6667 27.2134L25.6534 23.2134C26.4134 22.88 26.9201 22.1067 26.9201 21.2667C26.9201 20.72 27.3601 20.28 27.9067 20.28C28.4534 20.28 28.8934 20.72 28.8934 21.2667C28.8934 22.8934 27.9334 24.36 26.4534 25.0267L17.4667 29.0267C17.0134 29.2267 16.5067 29.3334 16.0001 29.3334Z" fill="white"/>
</svg>
